<svg width="51" height="26" viewBox="0 0 51 26" fill="none" xmlns="http://www.w3.org/2000/svg">
<path d="M2.6325 9.5775C2.6325 10.1725 2.7125 10.7075 2.8725 11.1825C3.0325 11.6525 3.26 12.0525 3.555 12.3825C3.855 12.7075 4.215 12.9575 4.635 13.1325C5.06 13.3075 5.5375 13.395 6.0675 13.395C6.5975 13.395 7.0725 13.3075 7.4925 13.1325C7.9175 12.9575 8.2775 12.7075 8.5725 12.3825C8.8675 12.0525 9.095 11.6525 9.255 11.1825C9.415 10.7075 9.495 10.1725 9.495 9.5775C9.495 8.9825 9.415 8.45 9.255 7.98C9.095 7.505 8.8675 7.1025 8.5725 6.7725C8.2775 6.4425 7.9175 6.19 7.4925 6.015C7.0725 5.84 6.5975 5.7525 6.0675 5.7525C5.5375 5.7525 5.06 5.84 4.635 6.015C4.215 6.19 3.855 6.4425 3.555 6.7725C3.26 7.1025 3.0325 7.505 2.8725 7.98C2.7125 8.45 2.6325 8.9825 2.6325 9.5775ZM12.12 17.1225H10.455C10.215 17.1225 9.9975 17.09 9.8025 17.025C9.6125 16.96 9.4375 16.84 9.2775 16.665L7.6875 14.91C7.4325 14.98 7.17 15.0325 6.9 15.0675C6.635 15.1025 6.3575 15.12 6.0675 15.12C5.2475 15.12 4.5 14.9825 3.825 14.7075C3.15 14.4275 2.57 14.04 2.085 13.545C1.605 13.05 1.2325 12.465 0.9675 11.79C0.7025 11.11 0.57 10.3725 0.57 9.5775C0.57 8.7825 0.7025 8.0475 0.9675 7.3725C1.2325 6.6925 1.605 6.105 2.085 5.61C2.57 5.115 3.15 4.73 3.825 4.455C4.5 4.175 5.2475 4.035 6.0675 4.035C6.6175 4.035 7.135 4.1 7.62 4.23C8.105 4.355 8.55 4.535 8.955 4.77C9.36 5 9.7225 5.2825 10.0425 5.6175C10.3675 5.9475 10.6425 6.3175 10.8675 6.7275C11.0925 7.1375 11.2625 7.5825 11.3775 8.0625C11.4975 8.5425 11.5575 9.0475 11.5575 9.5775C11.5575 10.0625 11.5075 10.5275 11.4075 10.9725C11.3075 11.4125 11.1625 11.825 10.9725 12.21C10.7875 12.595 10.56 12.95 10.29 13.275C10.02 13.595 9.7125 13.8775 9.3675 14.1225L12.12 17.1225ZM17.6868 13.3725C18.0768 13.3725 18.4243 13.3075 18.7293 13.1775C19.0393 13.0475 19.2993 12.865 19.5093 12.63C19.7193 12.395 19.8793 12.11 19.9893 11.775C20.1043 11.44 20.1618 11.065 20.1618 10.65V4.155H22.1793V10.65C22.1793 11.295 22.0743 11.8925 21.8643 12.4425C21.6593 12.9875 21.3618 13.46 20.9718 13.86C20.5868 14.255 20.1168 14.565 19.5618 14.79C19.0068 15.01 18.3818 15.12 17.6868 15.12C16.9868 15.12 16.3593 15.01 15.8043 14.79C15.2493 14.565 14.7768 14.255 14.3868 13.86C14.0018 13.46 13.7043 12.9875 13.4943 12.4425C13.2893 11.8925 13.1868 11.295 13.1868 10.65V4.155H15.2043V10.6425C15.2043 11.0575 15.2593 11.4325 15.3693 11.7675C15.4843 12.1025 15.6468 12.39 15.8568 12.63C16.0718 12.865 16.3318 13.0475 16.6368 13.1775C16.9468 13.3075 17.2968 13.3725 17.6868 13.3725ZM26.4796 15H24.4546V4.155H26.4796V15ZM36.3552 12.4425C36.4652 12.4425 36.5627 12.485 36.6477 12.57L37.4427 13.4325C37.0027 13.9775 36.4602 14.395 35.8152 14.685C35.1752 14.975 34.4052 15.12 33.5052 15.12C32.7002 15.12 31.9752 14.9825 31.3302 14.7075C30.6902 14.4325 30.1427 14.05 29.6877 13.56C29.2327 13.07 28.8827 12.485 28.6377 11.805C28.3977 11.125 28.2777 10.3825 28.2777 9.5775C28.2777 8.7625 28.4077 8.0175 28.6677 7.3425C28.9277 6.6625 29.2927 6.0775 29.7627 5.5875C30.2377 5.0975 30.8027 4.7175 31.4577 4.4475C32.1127 4.1725 32.8377 4.035 33.6327 4.035C34.4227 4.035 35.1227 4.165 35.7327 4.425C36.3477 4.685 36.8702 5.025 37.3002 5.445L36.6252 6.3825C36.5852 6.4425 36.5327 6.495 36.4677 6.54C36.4077 6.585 36.3227 6.6075 36.2127 6.6075C36.1377 6.6075 36.0602 6.5875 35.9802 6.5475C35.9002 6.5025 35.8127 6.45 35.7177 6.39C35.6227 6.325 35.5127 6.255 35.3877 6.18C35.2627 6.105 35.1177 6.0375 34.9527 5.9775C34.7877 5.9125 34.5952 5.86 34.3752 5.82C34.1602 5.775 33.9102 5.7525 33.6252 5.7525C33.1402 5.7525 32.6952 5.84 32.2902 6.015C31.8902 6.185 31.5452 6.435 31.2552 6.765C30.9652 7.09 30.7402 7.49 30.5802 7.965C30.4202 8.435 30.3402 8.9725 30.3402 9.5775C30.3402 10.1875 30.4252 10.73 30.5952 11.205C30.7702 11.68 31.0052 12.08 31.3002 12.405C31.5952 12.73 31.9427 12.98 32.3427 13.155C32.7427 13.325 33.1727 13.41 33.6327 13.41C33.9077 13.41 34.1552 13.395 34.3752 13.365C34.6002 13.335 34.8052 13.2875 34.9902 13.2225C35.1802 13.1575 35.3577 13.075 35.5227 12.975C35.6927 12.87 35.8602 12.7425 36.0252 12.5925C36.0752 12.5475 36.1277 12.5125 36.1827 12.4875C36.2377 12.4575 36.2952 12.4425 36.3552 12.4425ZM40.8422 8.7H41.3147C41.5047 8.7 41.6622 8.675 41.7872 8.625C41.9122 8.57 42.0197 8.485 42.1097 8.37L45.1022 4.5825C45.2272 4.4225 45.3572 4.3125 45.4922 4.2525C45.6322 4.1875 45.8072 4.155 46.0172 4.155H47.7572L44.1047 8.6625C43.8897 8.9375 43.6672 9.1325 43.4372 9.2475C43.6022 9.3075 43.7497 9.3925 43.8797 9.5025C44.0147 9.6075 44.1422 9.7475 44.2622 9.9225L48.0272 15H46.2497C46.0097 15 45.8297 14.9675 45.7097 14.9025C45.5947 14.8325 45.4972 14.7325 45.4172 14.6025L42.3497 10.5975C42.2547 10.4625 42.1447 10.3675 42.0197 10.3125C41.8947 10.2575 41.7147 10.23 41.4797 10.23H40.8422V15H38.8247V4.155H40.8422V8.7Z" fill="black"/>
<path d="M3.6325 10.5775C3.6325 11.1725 3.7125 11.7075 3.8725 12.1825C4.0325 12.6525 4.26 13.0525 4.555 13.3825C4.855 13.7075 5.215 13.9575 5.635 14.1325C6.06 14.3075 6.5375 14.395 7.0675 14.395C7.5975 14.395 8.0725 14.3075 8.4925 14.1325C8.9175 13.9575 9.2775 13.7075 9.5725 13.3825C9.8675 13.0525 10.095 12.6525 10.255 12.1825C10.415 11.7075 10.495 11.1725 10.495 10.5775C10.495 9.9825 10.415 9.45 10.255 8.98C10.095 8.505 9.8675 8.1025 9.5725 7.7725C9.2775 7.4425 8.9175 7.19 8.4925 7.015C8.0725 6.84 7.5975 6.7525 7.0675 6.7525C6.5375 6.7525 6.06 6.84 5.635 7.015C5.215 7.19 4.855 7.4425 4.555 7.7725C4.26 8.1025 4.0325 8.505 3.8725 8.98C3.7125 9.45 3.6325 9.9825 3.6325 10.5775ZM13.12 18.1225H11.455C11.215 18.1225 10.9975 18.09 10.8025 18.025C10.6125 17.96 10.4375 17.84 10.2775 17.665L8.6875 15.91C8.4325 15.98 8.17 16.0325 7.9 16.0675C7.635 16.1025 7.3575 16.12 7.0675 16.12C6.2475 16.12 5.5 15.9825 4.825 15.7075C4.15 15.4275 3.57 15.04 3.085 14.545C2.605 14.05 2.2325 13.465 1.9675 12.79C1.7025 12.11 1.57 11.3725 1.57 10.5775C1.57 9.7825 1.7025 9.0475 1.9675 8.3725C2.2325 7.6925 2.605 7.105 3.085 6.61C3.57 6.115 4.15 5.73 4.825 5.455C5.5 5.175 6.2475 5.035 7.0675 5.035C7.6175 5.035 8.135 5.1 8.62 5.23C9.105 5.355 9.55 5.535 9.955 5.77C10.36 6 10.7225 6.2825 11.0425 6.6175C11.3675 6.9475 11.6425 7.3175 11.8675 7.7275C12.0925 8.1375 12.2625 8.5825 12.3775 9.0625C12.4975 9.5425 12.5575 10.0475 12.5575 10.5775C12.5575 11.0625 12.5075 11.5275 12.4075 11.9725C12.3075 12.4125 12.1625 12.825 11.9725 13.21C11.7875 13.595 11.56 13.95 11.29 14.275C11.02 14.595 10.7125 14.8775 10.3675 15.1225L13.12 18.1225ZM18.6868 14.3725C19.0768 14.3725 19.4243 14.3075 19.7293 14.1775C20.0393 14.0475 20.2993 13.865 20.5093 13.63C20.7193 13.395 20.8793 13.11 20.9893 12.775C21.1043 12.44 21.1618 12.065 21.1618 11.65V5.155H23.1793V11.65C23.1793 12.295 23.0743 12.8925 22.8643 13.4425C22.6593 13.9875 22.3618 14.46 21.9718 14.86C21.5868 15.255 21.1168 15.565 20.5618 15.79C20.0068 16.01 19.3818 16.12 18.6868 16.12C17.9868 16.12 17.3593 16.01 16.8043 15.79C16.2493 15.565 15.7768 15.255 15.3868 14.86C15.0018 14.46 14.7043 13.9875 14.4943 13.4425C14.2893 12.8925 14.1868 12.295 14.1868 11.65V5.155H16.2043V11.6425C16.2043 12.0575 16.2593 12.4325 16.3693 12.7675C16.4843 13.1025 16.6468 13.39 16.8568 13.63C17.0718 13.865 17.3318 14.0475 17.6368 14.1775C17.9468 14.3075 18.2968 14.3725 18.6868 14.3725ZM27.4796 16H25.4546V5.155H27.4796V16ZM37.3552 13.4425C37.4652 13.4425 37.5627 13.485 37.6477 13.57L38.4427 14.4325C38.0027 14.9775 37.4602 15.395 36.8152 15.685C36.1752 15.975 35.4052 16.12 34.5052 16.12C33.7002 16.12 32.9752 15.9825 32.3302 15.7075C31.6902 15.4325 31.1427 15.05 30.6877 14.56C30.2327 14.07 29.8827 13.485 29.6377 12.805C29.3977 12.125 29.2777 11.3825 29.2777 10.5775C29.2777 9.7625 29.4077 9.0175 29.6677 8.3425C29.9277 7.6625 30.2927 7.0775 30.7627 6.5875C31.2377 6.0975 31.8027 5.7175 32.4577 5.4475C33.1127 5.1725 33.8377 5.035 34.6327 5.035C35.4227 5.035 36.1227 5.165 36.7327 5.425C37.3477 5.685 37.8702 6.025 38.3002 6.445L37.6252 7.3825C37.5852 7.4425 37.5327 7.495 37.4677 7.54C37.4077 7.585 37.3227 7.6075 37.2127 7.6075C37.1377 7.6075 37.0602 7.5875 36.9802 7.5475C36.9002 7.5025 36.8127 7.45 36.7177 7.39C36.6227 7.325 36.5127 7.255 36.3877 7.18C36.2627 7.105 36.1177 7.0375 35.9527 6.9775C35.7877 6.9125 35.5952 6.86 35.3752 6.82C35.1602 6.775 34.9102 6.7525 34.6252 6.7525C34.1402 6.7525 33.6952 6.84 33.2902 7.015C32.8902 7.185 32.5452 7.435 32.2552 7.765C31.9652 8.09 31.7402 8.49 31.5802 8.965C31.4202 9.435 31.3402 9.9725 31.3402 10.5775C31.3402 11.1875 31.4252 11.73 31.5952 12.205C31.7702 12.68 32.0052 13.08 32.3002 13.405C32.5952 13.73 32.9427 13.98 33.3427 14.155C33.7427 14.325 34.1727 14.41 34.6327 14.41C34.9077 14.41 35.1552 14.395 35.3752 14.365C35.6002 14.335 35.8052 14.2875 35.9902 14.2225C36.1802 14.1575 36.3577 14.075 36.5227 13.975C36.6927 13.87 36.8602 13.7425 37.0252 13.5925C37.0752 13.5475 37.1277 13.5125 37.1827 13.4875C37.2377 13.4575 37.2952 13.4425 37.3552 13.4425ZM41.8422 9.7H42.3147C42.5047 9.7 42.6622 9.675 42.7872 9.625C42.9122 9.57 43.0197 9.485 43.1097 9.37L46.1022 5.5825C46.2272 5.4225 46.3572 5.3125 46.4922 5.2525C46.6322 5.1875 46.8072 5.155 47.0172 5.155H48.7572L45.1047 9.6625C44.8897 9.9375 44.6672 10.1325 44.4372 10.2475C44.6022 10.3075 44.7497 10.3925 44.8797 10.5025C45.0147 10.6075 45.1422 10.7475 45.2622 10.9225L49.0272 16H47.2497C47.0097 16 46.8297 15.9675 46.7097 15.9025C46.5947 15.8325 46.4972 15.7325 46.4172 15.6025L43.3497 11.5975C43.2547 11.4625 43.1447 11.3675 43.0197 11.3125C42.8947 11.2575 42.7147 11.23 42.4797 11.23H41.8422V16H39.8247V5.155H41.8422V9.7Z" fill="black" fill-opacity="0.19"/>
<path d="M8.91 23V16H11.88C12.2933 16 12.6667 16.1 13 16.3C13.34 16.4933 13.6067 16.76 13.8 17.1C14 17.44 14.1 17.8233 14.1 18.25C14.1 18.6833 14 19.0733 13.8 19.42C13.6067 19.7667 13.34 20.0433 13 20.25C12.6667 20.45 12.2933 20.55 11.88 20.55H10.41V23H8.91ZM10.39 19.2H11.71C11.87 19.2 12.0133 19.16 12.14 19.08C12.2667 18.9933 12.3667 18.88 12.44 18.74C12.52 18.6 12.56 18.44 12.56 18.26C12.56 18.08 12.52 17.9233 12.44 17.79C12.3667 17.65 12.2667 17.5433 12.14 17.47C12.0133 17.39 11.87 17.35 11.71 17.35H10.39V19.2ZM17.1255 23.1C16.6855 23.1 16.2889 22.98 15.9355 22.74C15.5822 22.5 15.3022 22.1733 15.0955 21.76C14.8889 21.3467 14.7855 20.8733 14.7855 20.34C14.7855 19.8067 14.8889 19.3367 15.0955 18.93C15.3089 18.5167 15.5955 18.1933 15.9555 17.96C16.3155 17.72 16.7255 17.6 17.1855 17.6C17.4455 17.6 17.6822 17.64 17.8955 17.72C18.1155 17.7933 18.3055 17.8967 18.4655 18.03C18.6322 18.1633 18.7722 18.3167 18.8855 18.49C18.9989 18.6633 19.0789 18.85 19.1255 19.05L18.8255 19V17.71H20.2355V23H18.8055V21.73L19.1255 21.7C19.0722 21.8867 18.9855 22.0633 18.8655 22.23C18.7455 22.3967 18.5955 22.5467 18.4155 22.68C18.2422 22.8067 18.0455 22.91 17.8255 22.99C17.6055 23.0633 17.3722 23.1 17.1255 23.1ZM17.5155 21.87C17.7822 21.87 18.0155 21.8067 18.2155 21.68C18.4155 21.5533 18.5689 21.3767 18.6755 21.15C18.7889 20.9167 18.8455 20.6467 18.8455 20.34C18.8455 20.04 18.7889 19.7767 18.6755 19.55C18.5689 19.3233 18.4155 19.1467 18.2155 19.02C18.0155 18.8867 17.7822 18.82 17.5155 18.82C17.2555 18.82 17.0255 18.8867 16.8255 19.02C16.6322 19.1467 16.4789 19.3233 16.3655 19.55C16.2522 19.7767 16.1955 20.04 16.1955 20.34C16.1955 20.6467 16.2522 20.9167 16.3655 21.15C16.4789 21.3767 16.6322 21.5533 16.8255 21.68C17.0255 21.8067 17.2555 21.87 17.5155 21.87ZM21.7792 23V17.71H23.1992V23H21.7792ZM22.4792 16.62C22.2059 16.62 21.9926 16.5533 21.8392 16.42C21.6859 16.2867 21.6092 16.0967 21.6092 15.85C21.6092 15.6233 21.6859 15.44 21.8392 15.3C21.9992 15.1533 22.2126 15.08 22.4792 15.08C22.7526 15.08 22.9659 15.15 23.1192 15.29C23.2726 15.4233 23.3492 15.61 23.3492 15.85C23.3492 16.0833 23.2692 16.27 23.1092 16.41C22.9559 16.55 22.7459 16.62 22.4792 16.62ZM24.7159 23V17.71H26.0759L26.1159 18.79L25.8359 18.91C25.9092 18.67 26.0392 18.4533 26.2259 18.26C26.4192 18.06 26.6492 17.9 26.9159 17.78C27.1825 17.66 27.4625 17.6 27.7559 17.6C28.1559 17.6 28.4892 17.68 28.7559 17.84C29.0292 18 29.2325 18.2433 29.3659 18.57C29.5059 18.89 29.5759 19.2867 29.5759 19.76V23H28.1559V19.87C28.1559 19.63 28.1225 19.43 28.0559 19.27C27.9892 19.11 27.8859 18.9933 27.7459 18.92C27.6125 18.84 27.4459 18.8067 27.2459 18.82C27.0859 18.82 26.9359 18.8467 26.7959 18.9C26.6625 18.9467 26.5459 19.0167 26.4459 19.11C26.3525 19.2033 26.2759 19.31 26.2159 19.43C26.1625 19.55 26.1359 19.68 26.1359 19.82V23H25.4359C25.2825 23 25.1459 23 25.0259 23C24.9059 23 24.8025 23 24.7159 23ZM31.4466 23V16.37H32.8666V23H31.4466ZM30.4566 18.98V17.71H33.9466V18.98H30.4566ZM37.3333 23.1C36.7599 23.1 36.2599 22.9833 35.8333 22.75C35.4066 22.5167 35.0733 22.1967 34.8333 21.79C34.5933 21.3833 34.4733 20.9167 34.4733 20.39C34.4733 19.9833 34.5399 19.61 34.6733 19.27C34.8066 18.93 34.9933 18.6367 35.2333 18.39C35.4733 18.1367 35.7566 17.9433 36.0833 17.81C36.4166 17.67 36.7766 17.6 37.1633 17.6C37.5233 17.6 37.8566 17.6667 38.1633 17.8C38.4699 17.9267 38.7333 18.11 38.9533 18.35C39.1799 18.5833 39.3533 18.86 39.4733 19.18C39.5933 19.5 39.6466 19.85 39.6333 20.23L39.6233 20.67H35.3733L35.1433 19.8H38.4533L38.2933 19.98V19.76C38.2799 19.58 38.2199 19.4167 38.1133 19.27C38.0133 19.1233 37.8833 19.01 37.7233 18.93C37.5633 18.85 37.3833 18.81 37.1833 18.81C36.8899 18.81 36.6399 18.8667 36.4333 18.98C36.2333 19.0933 36.0799 19.26 35.9733 19.48C35.8666 19.7 35.8133 19.9667 35.8133 20.28C35.8133 20.6 35.8799 20.8767 36.0133 21.11C36.1533 21.3433 36.3466 21.5267 36.5933 21.66C36.8466 21.7867 37.1433 21.85 37.4833 21.85C37.7166 21.85 37.9299 21.8133 38.1233 21.74C38.3166 21.6667 38.5233 21.54 38.7433 21.36L39.4233 22.31C39.2299 22.4833 39.0166 22.63 38.7833 22.75C38.5499 22.8633 38.3099 22.95 38.0633 23.01C37.8166 23.07 37.5733 23.1 37.3333 23.1ZM40.6827 23V17.71H42.0527L42.1027 19.41L41.8627 19.06C41.9427 18.7867 42.0727 18.54 42.2527 18.32C42.4327 18.0933 42.6427 17.9167 42.8827 17.79C43.1293 17.6633 43.386 17.6 43.6527 17.6C43.766 17.6 43.876 17.61 43.9827 17.63C44.0893 17.65 44.1793 17.6733 44.2527 17.7L43.8727 19.26C43.7927 19.22 43.696 19.1867 43.5827 19.16C43.4693 19.1267 43.3527 19.11 43.2327 19.11C43.0727 19.11 42.9227 19.14 42.7827 19.2C42.6493 19.2533 42.5327 19.3333 42.4327 19.44C42.3327 19.54 42.2527 19.66 42.1927 19.8C42.1393 19.94 42.1127 20.0933 42.1127 20.26V23H40.6827ZM46.8474 23.1C46.3541 23.1 45.9141 23.02 45.5274 22.86C45.1474 22.6933 44.8408 22.4667 44.6074 22.18L45.4874 21.42C45.6941 21.64 45.9241 21.8 46.1774 21.9C46.4308 21.9933 46.6841 22.04 46.9374 22.04C47.0374 22.04 47.1274 22.03 47.2074 22.01C47.2941 21.9833 47.3674 21.95 47.4274 21.91C47.4874 21.8633 47.5308 21.81 47.5574 21.75C47.5908 21.6833 47.6074 21.6133 47.6074 21.54C47.6074 21.3933 47.5474 21.2767 47.4274 21.19C47.3608 21.1567 47.2574 21.1167 47.1174 21.07C46.9774 21.0167 46.7974 20.96 46.5774 20.9C46.2374 20.8133 45.9474 20.7133 45.7074 20.6C45.4741 20.48 45.2874 20.3467 45.1474 20.2C45.0274 20.06 44.9341 19.91 44.8674 19.75C44.8074 19.5833 44.7774 19.4 44.7774 19.2C44.7774 18.96 44.8308 18.7433 44.9374 18.55C45.0441 18.35 45.1908 18.18 45.3774 18.04C45.5708 17.9 45.7908 17.7933 46.0374 17.72C46.2841 17.64 46.5441 17.6 46.8174 17.6C47.0908 17.6 47.3574 17.6333 47.6174 17.7C47.8774 17.7667 48.1174 17.8633 48.3374 17.99C48.5641 18.11 48.7608 18.2533 48.9274 18.42L48.1674 19.26C48.0474 19.1467 47.9108 19.0433 47.7574 18.95C47.6108 18.8567 47.4574 18.7833 47.2974 18.73C47.1374 18.6767 46.9941 18.65 46.8674 18.65C46.7541 18.65 46.6508 18.66 46.5574 18.68C46.4708 18.7 46.3974 18.73 46.3374 18.77C46.2774 18.81 46.2308 18.8633 46.1974 18.93C46.1708 18.99 46.1574 19.0567 46.1574 19.13C46.1574 19.2033 46.1741 19.2733 46.2074 19.34C46.2474 19.4067 46.3008 19.4633 46.3674 19.51C46.4408 19.55 46.5474 19.5967 46.6874 19.65C46.8341 19.7033 47.0308 19.7633 47.2774 19.83C47.5974 19.9167 47.8674 20.0133 48.0874 20.12C48.3141 20.2267 48.4941 20.35 48.6274 20.49C48.7408 20.61 48.8241 20.7467 48.8774 20.9C48.9308 21.0533 48.9574 21.2233 48.9574 21.41C48.9574 21.7367 48.8641 22.03 48.6774 22.29C48.4974 22.5433 48.2474 22.7433 47.9274 22.89C47.6074 23.03 47.2474 23.1 46.8474 23.1Z" fill="black"/>
<path d="M9.91 24V17H12.88C13.2933 17 13.6667 17.1 14 17.3C14.34 17.4933 14.6067 17.76 14.8 18.1C15 18.44 15.1 18.8233 15.1 19.25C15.1 19.6833 15 20.0733 14.8 20.42C14.6067 20.7667 14.34 21.0433 14 21.25C13.6667 21.45 13.2933 21.55 12.88 21.55H11.41V24H9.91ZM11.39 20.2H12.71C12.87 20.2 13.0133 20.16 13.14 20.08C13.2667 19.9933 13.3667 19.88 13.44 19.74C13.52 19.6 13.56 19.44 13.56 19.26C13.56 19.08 13.52 18.9233 13.44 18.79C13.3667 18.65 13.2667 18.5433 13.14 18.47C13.0133 18.39 12.87 18.35 12.71 18.35H11.39V20.2ZM18.1255 24.1C17.6855 24.1 17.2889 23.98 16.9355 23.74C16.5822 23.5 16.3022 23.1733 16.0955 22.76C15.8889 22.3467 15.7855 21.8733 15.7855 21.34C15.7855 20.8067 15.8889 20.3367 16.0955 19.93C16.3089 19.5167 16.5955 19.1933 16.9555 18.96C17.3155 18.72 17.7255 18.6 18.1855 18.6C18.4455 18.6 18.6822 18.64 18.8955 18.72C19.1155 18.7933 19.3055 18.8967 19.4655 19.03C19.6322 19.1633 19.7722 19.3167 19.8855 19.49C19.9989 19.6633 20.0789 19.85 20.1255 20.05L19.8255 20V18.71H21.2355V24H19.8055V22.73L20.1255 22.7C20.0722 22.8867 19.9855 23.0633 19.8655 23.23C19.7455 23.3967 19.5955 23.5467 19.4155 23.68C19.2422 23.8067 19.0455 23.91 18.8255 23.99C18.6055 24.0633 18.3722 24.1 18.1255 24.1ZM18.5155 22.87C18.7822 22.87 19.0155 22.8067 19.2155 22.68C19.4155 22.5533 19.5689 22.3767 19.6755 22.15C19.7889 21.9167 19.8455 21.6467 19.8455 21.34C19.8455 21.04 19.7889 20.7767 19.6755 20.55C19.5689 20.3233 19.4155 20.1467 19.2155 20.02C19.0155 19.8867 18.7822 19.82 18.5155 19.82C18.2555 19.82 18.0255 19.8867 17.8255 20.02C17.6322 20.1467 17.4789 20.3233 17.3655 20.55C17.2522 20.7767 17.1955 21.04 17.1955 21.34C17.1955 21.6467 17.2522 21.9167 17.3655 22.15C17.4789 22.3767 17.6322 22.5533 17.8255 22.68C18.0255 22.8067 18.2555 22.87 18.5155 22.87ZM22.7792 24V18.71H24.1992V24H22.7792ZM23.4792 17.62C23.2059 17.62 22.9926 17.5533 22.8392 17.42C22.6859 17.2867 22.6092 17.0967 22.6092 16.85C22.6092 16.6233 22.6859 16.44 22.8392 16.3C22.9992 16.1533 23.2126 16.08 23.4792 16.08C23.7526 16.08 23.9659 16.15 24.1192 16.29C24.2726 16.4233 24.3492 16.61 24.3492 16.85C24.3492 17.0833 24.2692 17.27 24.1092 17.41C23.9559 17.55 23.7459 17.62 23.4792 17.62ZM25.7159 24V18.71H27.0759L27.1159 19.79L26.8359 19.91C26.9092 19.67 27.0392 19.4533 27.2259 19.26C27.4192 19.06 27.6492 18.9 27.9159 18.78C28.1825 18.66 28.4625 18.6 28.7559 18.6C29.1559 18.6 29.4892 18.68 29.7559 18.84C30.0292 19 30.2325 19.2433 30.3659 19.57C30.5059 19.89 30.5759 20.2867 30.5759 20.76V24H29.1559V20.87C29.1559 20.63 29.1225 20.43 29.0559 20.27C28.9892 20.11 28.8859 19.9933 28.7459 19.92C28.6125 19.84 28.4459 19.8067 28.2459 19.82C28.0859 19.82 27.9359 19.8467 27.7959 19.9C27.6625 19.9467 27.5459 20.0167 27.4459 20.11C27.3525 20.2033 27.2759 20.31 27.2159 20.43C27.1625 20.55 27.1359 20.68 27.1359 20.82V24H26.4359C26.2825 24 26.1459 24 26.0259 24C25.9059 24 25.8025 24 25.7159 24ZM32.4466 24V17.37H33.8666V24H32.4466ZM31.4566 19.98V18.71H34.9466V19.98H31.4566ZM38.3333 24.1C37.7599 24.1 37.2599 23.9833 36.8333 23.75C36.4066 23.5167 36.0733 23.1967 35.8333 22.79C35.5933 22.3833 35.4733 21.9167 35.4733 21.39C35.4733 20.9833 35.5399 20.61 35.6733 20.27C35.8066 19.93 35.9933 19.6367 36.2333 19.39C36.4733 19.1367 36.7566 18.9433 37.0833 18.81C37.4166 18.67 37.7766 18.6 38.1633 18.6C38.5233 18.6 38.8566 18.6667 39.1633 18.8C39.4699 18.9267 39.7333 19.11 39.9533 19.35C40.1799 19.5833 40.3533 19.86 40.4733 20.18C40.5933 20.5 40.6466 20.85 40.6333 21.23L40.6233 21.67H36.3733L36.1433 20.8H39.4533L39.2933 20.98V20.76C39.2799 20.58 39.2199 20.4167 39.1133 20.27C39.0133 20.1233 38.8833 20.01 38.7233 19.93C38.5633 19.85 38.3833 19.81 38.1833 19.81C37.8899 19.81 37.6399 19.8667 37.4333 19.98C37.2333 20.0933 37.0799 20.26 36.9733 20.48C36.8666 20.7 36.8133 20.9667 36.8133 21.28C36.8133 21.6 36.8799 21.8767 37.0133 22.11C37.1533 22.3433 37.3466 22.5267 37.5933 22.66C37.8466 22.7867 38.1433 22.85 38.4833 22.85C38.7166 22.85 38.9299 22.8133 39.1233 22.74C39.3166 22.6667 39.5233 22.54 39.7433 22.36L40.4233 23.31C40.2299 23.4833 40.0166 23.63 39.7833 23.75C39.5499 23.8633 39.3099 23.95 39.0633 24.01C38.8166 24.07 38.5733 24.1 38.3333 24.1ZM41.6827 24V18.71H43.0527L43.1027 20.41L42.8627 20.06C42.9427 19.7867 43.0727 19.54 43.2527 19.32C43.4327 19.0933 43.6427 18.9167 43.8827 18.79C44.1293 18.6633 44.386 18.6 44.6527 18.6C44.766 18.6 44.876 18.61 44.9827 18.63C45.0893 18.65 45.1793 18.6733 45.2527 18.7L44.8727 20.26C44.7927 20.22 44.696 20.1867 44.5827 20.16C44.4693 20.1267 44.3527 20.11 44.2327 20.11C44.0727 20.11 43.9227 20.14 43.7827 20.2C43.6493 20.2533 43.5327 20.3333 43.4327 20.44C43.3327 20.54 43.2527 20.66 43.1927 20.8C43.1393 20.94 43.1127 21.0933 43.1127 21.26V24H41.6827ZM47.8474 24.1C47.3541 24.1 46.9141 24.02 46.5274 23.86C46.1474 23.6933 45.8408 23.4667 45.6074 23.18L46.4874 22.42C46.6941 22.64 46.9241 22.8 47.1774 22.9C47.4308 22.9933 47.6841 23.04 47.9374 23.04C48.0374 23.04 48.1274 23.03 48.2074 23.01C48.2941 22.9833 48.3674 22.95 48.4274 22.91C48.4874 22.8633 48.5308 22.81 48.5574 22.75C48.5908 22.6833 48.6074 22.6133 48.6074 22.54C48.6074 22.3933 48.5474 22.2767 48.4274 22.19C48.3608 22.1567 48.2574 22.1167 48.1174 22.07C47.9774 22.0167 47.7974 21.96 47.5774 21.9C47.2374 21.8133 46.9474 21.7133 46.7074 21.6C46.4741 21.48 46.2874 21.3467 46.1474 21.2C46.0274 21.06 45.9341 20.91 45.8674 20.75C45.8074 20.5833 45.7774 20.4 45.7774 20.2C45.7774 19.96 45.8308 19.7433 45.9374 19.55C46.0441 19.35 46.1908 19.18 46.3774 19.04C46.5708 18.9 46.7908 18.7933 47.0374 18.72C47.2841 18.64 47.5441 18.6 47.8174 18.6C48.0908 18.6 48.3574 18.6333 48.6174 18.7C48.8774 18.7667 49.1174 18.8633 49.3374 18.99C49.5641 19.11 49.7608 19.2533 49.9274 19.42L49.1674 20.26C49.0474 20.1467 48.9108 20.0433 48.7574 19.95C48.6108 19.8567 48.4574 19.7833 48.2974 19.73C48.1374 19.6767 47.9941 19.65 47.8674 19.65C47.7541 19.65 47.6508 19.66 47.5574 19.68C47.4708 19.7 47.3974 19.73 47.3374 19.77C47.2774 19.81 47.2308 19.8633 47.1974 19.93C47.1708 19.99 47.1574 20.0567 47.1574 20.13C47.1574 20.2033 47.1741 20.2733 47.2074 20.34C47.2474 20.4067 47.3008 20.4633 47.3674 20.51C47.4408 20.55 47.5474 20.5967 47.6874 20.65C47.8341 20.7033 48.0308 20.7633 48.2774 20.83C48.5974 20.9167 48.8674 21.0133 49.0874 21.12C49.3141 21.2267 49.4941 21.35 49.6274 21.49C49.7408 21.61 49.8241 21.7467 49.8774 21.9C49.9308 22.0533 49.9574 22.2233 49.9574 22.41C49.9574 22.7367 49.8641 23.03 49.6774 23.29C49.4974 23.5433 49.2474 23.7433 48.9274 23.89C48.6074 24.03 48.2474 24.1 47.8474 24.1Z" fill="black" fill-opacity="0.19"/>
</svg>
