<svg width="105" height="67" viewBox="0 0 105 67" fill="none" xmlns="http://www.w3.org/2000/svg">
<path d="M17.984 38.84L15.104 34.968C14.2507 35.1387 13.4187 35.224 12.608 35.224C10.496 35.224 8.55467 34.7333 6.784 33.752C5.03467 32.7707 3.63733 31.4053 2.592 29.656C1.568 27.8853 1.056 25.9013 1.056 23.704C1.056 21.5067 1.568 19.5333 2.592 17.784C3.63733 16.0347 5.03467 14.6693 6.784 13.688C8.55467 12.7067 10.496 12.216 12.608 12.216C14.72 12.216 16.6507 12.7067 18.4 13.688C20.1707 14.6693 21.5573 16.0347 22.56 17.784C23.584 19.5333 24.096 21.5067 24.096 23.704C24.096 25.624 23.7013 27.384 22.912 28.984C22.144 30.5627 21.0667 31.8747 19.68 32.92L24.608 38.84H17.984ZM6.656 23.704C6.656 25.688 7.18933 27.2773 8.256 28.472C9.344 29.6453 10.7947 30.232 12.608 30.232C14.4 30.232 15.8293 29.6347 16.896 28.44C17.984 27.2453 18.528 25.6667 18.528 23.704C18.528 21.72 17.984 20.1413 16.896 18.968C15.8293 17.7733 14.4 17.176 12.608 17.176C10.7947 17.176 9.344 17.7627 8.256 18.936C7.18933 20.1093 6.656 21.6987 6.656 23.704Z" fill="#10069F"/>
<path d="M32.5788 12.536V25.976C32.5788 27.32 32.9094 28.3547 33.5708 29.08C34.2321 29.8053 35.2028 30.168 36.4828 30.168C37.7628 30.168 38.7441 29.8053 39.4268 29.08C40.1094 28.3547 40.4508 27.32 40.4508 25.976V12.536H45.9228V25.944C45.9228 27.9493 45.4961 29.6453 44.6428 31.032C43.7894 32.4187 42.6374 33.464 41.1868 34.168C39.7574 34.872 38.1574 35.224 36.3868 35.224C34.6161 35.224 33.0268 34.8827 31.6188 34.2C30.2321 33.496 29.1334 32.4507 28.3228 31.064C27.5121 29.656 27.1068 27.9493 27.1068 25.944V12.536H32.5788ZM55.2373 12.536V35H49.7653V12.536H55.2373ZM58.2747 23.736C58.2747 21.5173 58.7548 19.544 59.7148 17.816C60.6748 16.0667 62.0081 14.712 63.7148 13.752C65.4428 12.7707 67.3948 12.28 69.5708 12.28C72.2374 12.28 74.5201 12.984 76.4188 14.392C78.3174 15.8 79.5868 17.72 80.2268 20.152H74.2108C73.7628 19.2133 73.1228 18.4987 72.2908 18.008C71.4801 17.5173 70.5521 17.272 69.5068 17.272C67.8214 17.272 66.4561 17.8587 65.4108 19.032C64.3654 20.2053 63.8428 21.7733 63.8428 23.736C63.8428 25.6987 64.3654 27.2667 65.4108 28.44C66.4561 29.6133 67.8214 30.2 69.5068 30.2C70.5521 30.2 71.4801 29.9547 72.2908 29.464C73.1228 28.9733 73.7628 28.2587 74.2108 27.32H80.2268C79.5868 29.752 78.3174 31.672 76.4188 33.08C74.5201 34.4667 72.2374 35.16 69.5708 35.16C67.3948 35.16 65.4428 34.68 63.7148 33.72C62.0081 32.7387 60.6748 31.384 59.7148 29.656C58.7548 27.928 58.2747 25.9547 58.2747 23.736ZM96.6018 35L89.0498 25.08V35H83.5778V12.536H89.0498V22.392L96.5378 12.536H102.97L94.2658 23.544L103.29 35H96.6018Z" fill="#263238"/>
<path d="M16.537 48.004C16.537 48.858 16.341 49.642 15.949 50.356C15.557 51.056 14.955 51.623 14.143 52.057C13.331 52.491 12.323 52.708 11.119 52.708H8.893V58H5.302V43.258H11.119C12.295 43.258 13.289 43.461 14.101 43.867C14.913 44.273 15.522 44.833 15.928 45.547C16.334 46.261 16.537 47.08 16.537 48.004ZM10.846 49.852C11.532 49.852 12.043 49.691 12.379 49.369C12.715 49.047 12.883 48.592 12.883 48.004C12.883 47.416 12.715 46.961 12.379 46.639C12.043 46.317 11.532 46.156 10.846 46.156H8.893V49.852H10.846ZM27.5835 55.396H22.0815L21.1995 58H17.4405L22.7745 43.258H26.9325L32.2665 58H28.4655L27.5835 55.396ZM26.6595 52.624L24.8325 47.227L23.0265 52.624H26.6595ZM37.4809 43.258V58H33.8899V43.258H37.4809ZM53.2713 58H49.6803L43.6743 48.907V58H40.0833V43.258H43.6743L49.6803 52.393V43.258H53.2713V58ZM66.4793 43.258V46.135H62.5733V58H58.9823V46.135H55.0763V43.258H66.4793ZM71.8725 46.135V49.117H76.6815V51.889H71.8725V55.123H77.3115V58H68.2815V43.258H77.3115V46.135H71.8725ZM87.1608 58L84.0948 52.435H83.2338V58H79.6428V43.258H85.6698C86.8318 43.258 87.8188 43.461 88.6308 43.867C89.4568 44.273 90.0728 44.833 90.4788 45.547C90.8848 46.247 91.0878 47.031 91.0878 47.899C91.0878 48.879 90.8078 49.754 90.2478 50.524C89.7018 51.294 88.8898 51.84 87.8118 52.162L91.2138 58H87.1608ZM83.2338 49.894H85.4598C86.1178 49.894 86.6078 49.733 86.9298 49.411C87.2658 49.089 87.4338 48.634 87.4338 48.046C87.4338 47.486 87.2658 47.045 86.9298 46.723C86.6078 46.401 86.1178 46.24 85.4598 46.24H83.2338V49.894ZM98.676 58.147C97.598 58.147 96.632 57.972 95.778 57.622C94.924 57.272 94.238 56.754 93.72 56.068C93.216 55.382 92.95 54.556 92.922 53.59H96.744C96.8 54.136 96.989 54.556 97.311 54.85C97.633 55.13 98.053 55.27 98.571 55.27C99.103 55.27 99.523 55.151 99.831 54.913C100.139 54.661 100.293 54.318 100.293 53.884C100.293 53.52 100.167 53.219 99.915 52.981C99.677 52.743 99.376 52.547 99.012 52.393C98.662 52.239 98.158 52.064 97.5 51.868C96.548 51.574 95.771 51.28 95.169 50.986C94.567 50.692 94.049 50.258 93.615 49.684C93.181 49.11 92.964 48.361 92.964 47.437C92.964 46.065 93.461 44.994 94.455 44.224C95.449 43.44 96.744 43.048 98.34 43.048C99.964 43.048 101.273 43.44 102.267 44.224C103.261 44.994 103.793 46.072 103.863 47.458H99.978C99.95 46.982 99.775 46.611 99.453 46.345C99.131 46.065 98.718 45.925 98.214 45.925C97.78 45.925 97.43 46.044 97.164 46.282C96.898 46.506 96.765 46.835 96.765 47.269C96.765 47.745 96.989 48.116 97.437 48.382C97.885 48.648 98.585 48.935 99.537 49.243C100.489 49.565 101.259 49.873 101.847 50.167C102.449 50.461 102.967 50.888 103.401 51.448C103.835 52.008 104.052 52.729 104.052 53.611C104.052 54.451 103.835 55.214 103.401 55.9C102.981 56.586 102.365 57.132 101.553 57.538C100.741 57.944 99.782 58.147 98.676 58.147Z" fill="#263238"/>
</svg>
